<svg xmlns="http://www.w3.org/2000/svg" width="48" height="48" viewBox="0 0 48 48" fill="none">
  <circle cx="24" cy="24" r="20" fill="#EDE9FE"/>
  <path d="M30 22V20C30 18.9391 29.5786 17.9217 28.8284 17.1716C28.0783 16.4214 27.0609 16 26 16H18C16.9391 16 15.9217 16.4214 15.1716 17.1716C14.4214 17.9217 14 18.9391 14 20V28C14 29.0609 14.4214 30.0783 15.1716 30.8284C15.9217 31.5786 16.9391 32 18 32H20" stroke="#8B5CF6" stroke-width="2" stroke-linecap="round" stroke-linejoin="round"/>
  <path d="M26 16C26.5304 16 27.0391 15.7893 27.4142 15.4142C27.7893 15.0391 28 14.5304 28 14C28 13.4696 27.7893 12.9609 27.4142 12.5858C27.0391 12.2107 26.5304 12 26 12C25.4696 12 24.9609 12.2107 24.5858 12.5858C24.2107 12.9609 24 13.4696 24 14C24 14.5304 24.2107 15.0391 24.5858 15.4142C24.9609 15.7893 25.4696 16 26 16Z" stroke="#8B5CF6" stroke-width="2" stroke-linecap="round" stroke-linejoin="round"/>
  <path d="M34 28H26L24 32H34L32 36H24" stroke="#8B5CF6" stroke-width="2" stroke-linecap="round" stroke-linejoin="round"/>
</svg>